<svg xmlns="http://www.w3.org/2000/svg" xmlns:xlink="http://www.w3.org/1999/xlink" width="500" zoomAndPan="magnify" viewBox="0 0 375 149.999998" height="200" preserveAspectRatio="xMidYMid meet" version="1.0"><defs><g/></defs><g fill="#ffffff" fill-opacity="1"><g transform="translate(23.974764, 95.894144)"><g><path d="M 31.890625 -39.78125 L 31.890625 -33.171875 L 20.40625 -33.171875 L 20.40625 0 L 12.5625 0 L 12.5625 -33.171875 L 1.09375 -33.171875 L 1.09375 -39.78125 Z M 31.890625 -39.78125 "/></g></g></g><g fill="#ffffff" fill-opacity="1"><g transform="translate(56.945115, 95.894144)"><g><path d="M 4.328125 0 L 4.328125 -42.0625 L 11.859375 -42.0625 L 11.859375 -26.09375 L 12.4375 -25.984375 C 13.4375 -27.453125 14.660156 -28.582031 16.109375 -29.375 C 17.554688 -30.175781 19.304688 -30.578125 21.359375 -30.578125 C 27.972656 -30.578125 31.28125 -26.820312 31.28125 -19.3125 L 31.28125 0 L 23.75 0 L 23.75 -18.359375 C 23.75 -20.410156 23.335938 -21.898438 22.515625 -22.828125 C 21.703125 -23.753906 20.4375 -24.21875 18.71875 -24.21875 C 16.613281 -24.21875 14.941406 -23.515625 13.703125 -22.109375 C 12.472656 -20.703125 11.859375 -18.507812 11.859375 -15.53125 L 11.859375 0 Z M 4.328125 0 "/></g></g></g><g fill="#ffffff" fill-opacity="1"><g transform="translate(92.091726, 95.894144)"><g><path d="M 29.65625 -13.296875 L 10.359375 -13.296875 C 10.578125 -10.691406 11.320312 -8.796875 12.59375 -7.609375 C 13.863281 -6.421875 15.597656 -5.828125 17.796875 -5.828125 C 19.515625 -5.828125 20.910156 -6.144531 21.984375 -6.78125 C 23.054688 -7.425781 23.914062 -8.40625 24.5625 -9.71875 L 25.140625 -9.71875 L 30.140625 -6.5 C 29.160156 -4.394531 27.679688 -2.6875 25.703125 -1.375 C 23.734375 -0.0703125 21.097656 0.578125 17.796875 0.578125 C 14.691406 0.578125 12.007812 -0.0078125 9.75 -1.1875 C 7.488281 -2.375 5.742188 -4.128906 4.515625 -6.453125 C 3.296875 -8.785156 2.6875 -11.628906 2.6875 -14.984375 C 2.6875 -18.398438 3.332031 -21.273438 4.625 -23.609375 C 5.914062 -25.953125 7.65625 -27.695312 9.84375 -28.84375 C 12.039062 -30 14.507812 -30.578125 17.25 -30.578125 C 21.488281 -30.578125 24.738281 -29.453125 27 -27.203125 C 29.257812 -24.953125 30.390625 -21.648438 30.390625 -17.296875 C 30.390625 -15.722656 30.332031 -14.5 30.21875 -13.625 Z M 23.1875 -18.171875 C 23.113281 -20.460938 22.582031 -22.128906 21.59375 -23.171875 C 20.601562 -24.210938 19.15625 -24.734375 17.25 -24.734375 C 13.4375 -24.734375 11.195312 -22.546875 10.53125 -18.171875 Z M 23.1875 -18.171875 "/></g></g></g><g fill="#ffffff" fill-opacity="1"><g transform="translate(124.708442, 95.894144)"><g><path d="M 4.328125 0 L 4.328125 -30.015625 L 11.640625 -30.015625 L 11.640625 -25.546875 L 12.21875 -25.4375 C 12.9375 -27.101562 13.882812 -28.328125 15.0625 -29.109375 C 16.25 -29.890625 17.6875 -30.28125 19.375 -30.28125 C 21.070312 -30.28125 22.367188 -29.988281 23.265625 -29.40625 L 21.984375 -22.90625 L 21.40625 -22.796875 C 20.914062 -22.992188 20.441406 -23.140625 19.984375 -23.234375 C 19.535156 -23.328125 18.988281 -23.375 18.34375 -23.375 C 16.238281 -23.375 14.628906 -22.632812 13.515625 -21.15625 C 12.410156 -19.675781 11.859375 -17.300781 11.859375 -14.03125 L 11.859375 0 Z M 4.328125 0 "/></g></g></g><g fill="#ffffff" fill-opacity="1"><g transform="translate(148.239268, 95.894144)"><g><path d="M 11.703125 0.578125 C 9.773438 0.578125 8.101562 0.222656 6.6875 -0.484375 C 5.28125 -1.191406 4.191406 -2.226562 3.421875 -3.59375 C 2.660156 -4.96875 2.28125 -6.617188 2.28125 -8.546875 C 2.28125 -10.316406 2.660156 -11.804688 3.421875 -13.015625 C 4.191406 -14.222656 5.375 -15.210938 6.96875 -15.984375 C 8.5625 -16.753906 10.644531 -17.347656 13.21875 -17.765625 C 15.019531 -18.054688 16.382812 -18.375 17.3125 -18.71875 C 18.25 -19.0625 18.878906 -19.453125 19.203125 -19.890625 C 19.535156 -20.328125 19.703125 -20.878906 19.703125 -21.546875 C 19.703125 -22.503906 19.363281 -23.238281 18.6875 -23.75 C 18.019531 -24.257812 16.90625 -24.515625 15.34375 -24.515625 C 13.675781 -24.515625 12.085938 -24.140625 10.578125 -23.390625 C 9.078125 -22.648438 7.773438 -21.671875 6.671875 -20.453125 L 6.125 -20.453125 L 2.96875 -25.21875 C 4.488281 -26.90625 6.34375 -28.21875 8.53125 -29.15625 C 10.726562 -30.101562 13.125 -30.578125 15.71875 -30.578125 C 19.695312 -30.578125 22.570312 -29.734375 24.34375 -28.046875 C 26.125 -26.359375 27.015625 -23.96875 27.015625 -20.875 L 27.015625 -7.828125 C 27.015625 -6.492188 27.601562 -5.828125 28.78125 -5.828125 C 29.238281 -5.828125 29.6875 -5.90625 30.125 -6.0625 L 30.5 -5.953125 L 31.046875 -0.703125 C 30.628906 -0.429688 30.046875 -0.207031 29.296875 -0.03125 C 28.554688 0.132812 27.742188 0.21875 26.859375 0.21875 C 25.054688 0.21875 23.648438 -0.125 22.640625 -0.8125 C 21.640625 -1.5 20.921875 -2.578125 20.484375 -4.046875 L 19.921875 -4.109375 C 18.453125 -0.984375 15.710938 0.578125 11.703125 0.578125 Z M 14.09375 -5.0625 C 15.832031 -5.0625 17.222656 -5.644531 18.265625 -6.8125 C 19.304688 -7.976562 19.828125 -9.609375 19.828125 -11.703125 L 19.828125 -14.75 L 19.3125 -14.859375 C 18.863281 -14.492188 18.269531 -14.1875 17.53125 -13.9375 C 16.800781 -13.695312 15.742188 -13.457031 14.359375 -13.21875 C 12.734375 -12.945312 11.5625 -12.476562 10.84375 -11.8125 C 10.125 -11.15625 9.765625 -10.21875 9.765625 -9 C 9.765625 -7.71875 10.144531 -6.738281 10.90625 -6.0625 C 11.664062 -5.394531 12.726562 -5.0625 14.09375 -5.0625 Z M 14.09375 -5.0625 "/></g></g></g><g fill="#ffffff" fill-opacity="1"><g transform="translate(179.876666, 95.894144)"><g><path d="M 4.328125 12.15625 L 4.328125 -30.015625 L 11.859375 -30.015625 L 11.859375 -26.09375 L 12.4375 -25.984375 C 13.320312 -27.503906 14.507812 -28.648438 16 -29.421875 C 17.488281 -30.191406 19.226562 -30.578125 21.21875 -30.578125 C 23.632812 -30.578125 25.742188 -30.003906 27.546875 -28.859375 C 29.347656 -27.722656 30.753906 -25.988281 31.765625 -23.65625 C 32.773438 -21.320312 33.28125 -18.429688 33.28125 -14.984375 C 33.28125 -11.554688 32.75 -8.679688 31.6875 -6.359375 C 30.625 -4.046875 29.148438 -2.3125 27.265625 -1.15625 C 25.378906 0 23.203125 0.578125 20.734375 0.578125 C 18.859375 0.578125 17.238281 0.265625 15.875 -0.359375 C 14.519531 -0.992188 13.375 -1.972656 12.4375 -3.296875 L 11.859375 -3.1875 L 11.859375 12.15625 Z M 18.640625 -5.828125 C 20.890625 -5.828125 22.59375 -6.5625 23.75 -8.03125 C 24.914062 -9.5 25.5 -11.816406 25.5 -14.984375 C 25.5 -18.160156 24.914062 -20.488281 23.75 -21.96875 C 22.59375 -23.445312 20.890625 -24.1875 18.640625 -24.1875 C 16.535156 -24.1875 14.863281 -23.421875 13.625 -21.890625 C 12.394531 -20.367188 11.78125 -18.066406 11.78125 -14.984375 C 11.78125 -11.921875 12.394531 -9.628906 13.625 -8.109375 C 14.863281 -6.585938 16.535156 -5.828125 18.640625 -5.828125 Z M 18.640625 -5.828125 "/></g></g></g><g fill="#ffffff" fill-opacity="1"><g transform="translate(215.81218, 95.894144)"><g><path d="M 8.078125 -33.59375 C 6.722656 -33.59375 5.617188 -34.003906 4.765625 -34.828125 C 3.910156 -35.660156 3.484375 -36.726562 3.484375 -38.03125 C 3.484375 -39.320312 3.910156 -40.378906 4.765625 -41.203125 C 5.617188 -42.023438 6.722656 -42.4375 8.078125 -42.4375 C 8.984375 -42.4375 9.789062 -42.242188 10.5 -41.859375 C 11.207031 -41.484375 11.753906 -40.960938 12.140625 -40.296875 C 12.535156 -39.640625 12.734375 -38.882812 12.734375 -38.03125 C 12.734375 -37.175781 12.535156 -36.414062 12.140625 -35.75 C 11.753906 -35.082031 11.207031 -34.554688 10.5 -34.171875 C 9.789062 -33.785156 8.984375 -33.59375 8.078125 -33.59375 Z M 4.328125 0 L 4.328125 -30.015625 L 11.859375 -30.015625 L 11.859375 0 Z M 4.328125 0 "/></g></g></g><g fill="#ffffff" fill-opacity="1"><g transform="translate(231.970915, 95.894144)"><g><path d="M 14.03125 0.578125 C 11.988281 0.578125 10.113281 0.335938 8.40625 -0.140625 C 6.695312 -0.628906 5.238281 -1.296875 4.03125 -2.140625 C 2.832031 -2.984375 1.941406 -3.945312 1.359375 -5.03125 L 5.546875 -9.546875 L 6.125 -9.546875 C 7.125 -8.203125 8.300781 -7.191406 9.65625 -6.515625 C 11.019531 -5.847656 12.5 -5.515625 14.09375 -5.515625 C 15.5625 -5.515625 16.664062 -5.773438 17.40625 -6.296875 C 18.15625 -6.828125 18.53125 -7.582031 18.53125 -8.5625 C 18.53125 -9.332031 18.257812 -9.972656 17.71875 -10.484375 C 17.1875 -11.003906 16.320312 -11.410156 15.125 -11.703125 L 11.15625 -12.65625 C 8.175781 -13.363281 6 -14.445312 4.625 -15.90625 C 3.257812 -17.363281 2.578125 -19.21875 2.578125 -21.46875 C 2.578125 -23.332031 3.050781 -24.953125 4 -26.328125 C 4.957031 -27.710938 6.300781 -28.765625 8.03125 -29.484375 C 9.769531 -30.210938 11.789062 -30.578125 14.09375 -30.578125 C 16.789062 -30.578125 19.03125 -30.1875 20.8125 -29.40625 C 22.59375 -28.625 23.976562 -27.582031 24.96875 -26.28125 L 20.953125 -21.921875 L 20.40625 -21.921875 C 19.570312 -22.867188 18.632812 -23.5625 17.59375 -24 C 16.550781 -24.4375 15.382812 -24.65625 14.09375 -24.65625 C 11.113281 -24.65625 9.625 -23.726562 9.625 -21.875 C 9.625 -21.09375 9.898438 -20.457031 10.453125 -19.96875 C 11.015625 -19.476562 11.992188 -19.078125 13.390625 -18.765625 L 17.078125 -17.953125 C 20.128906 -17.304688 22.359375 -16.257812 23.765625 -14.8125 C 25.171875 -13.375 25.875 -11.4375 25.875 -9 C 25.875 -7.101562 25.398438 -5.425781 24.453125 -3.96875 C 23.515625 -2.519531 22.15625 -1.398438 20.375 -0.609375 C 18.601562 0.179688 16.488281 0.578125 14.03125 0.578125 Z M 14.03125 0.578125 "/></g></g></g><g fill="#ffffff" fill-opacity="1"><g transform="translate(259.636638, 95.894144)"><g><path d="M 20.703125 -7.15625 L 22.65625 -1.578125 C 21.84375 -0.910156 20.816406 -0.382812 19.578125 0 C 18.347656 0.382812 16.957031 0.578125 15.40625 0.578125 C 12.15625 0.578125 9.6875 -0.304688 8 -2.078125 C 6.3125 -3.847656 5.46875 -6.421875 5.46875 -9.796875 L 5.46875 -24.046875 L 0.890625 -24.046875 L 0.890625 -30.03125 L 5.46875 -30.03125 L 5.46875 -35.890625 L 13 -37.109375 L 13 -30.03125 L 21.515625 -30.03125 L 21.515625 -24.046875 L 13 -24.046875 L 13 -10.34375 C 13 -8.851562 13.304688 -7.765625 13.921875 -7.078125 C 14.546875 -6.398438 15.445312 -6.0625 16.625 -6.0625 C 17.96875 -6.0625 19.132812 -6.425781 20.125 -7.15625 Z M 20.703125 -7.15625 "/></g></g></g><g fill="#ffffff" fill-opacity="1"><g transform="translate(282.949838, 95.894144)"><g/></g></g><g fill="#ffffff" fill-opacity="1"><g transform="translate(296.089036, 95.894144)"><g><path d="M 38.171875 0 L 29.90625 0 L 26.90625 -9.171875 L 11.671875 -9.171875 L 8.671875 0 L 0.59375 0 L 14.34375 -39.78125 L 24.4375 -39.78125 Z M 18.90625 -31.484375 L 13.796875 -15.78125 L 24.734375 -15.78125 L 19.59375 -31.484375 Z M 18.90625 -31.484375 "/></g></g></g><g fill="#ffffff" fill-opacity="1"><g transform="translate(334.853704, 95.894144)"><g><path d="M 8.078125 -33.59375 C 6.722656 -33.59375 5.617188 -34.003906 4.765625 -34.828125 C 3.910156 -35.660156 3.484375 -36.726562 3.484375 -38.03125 C 3.484375 -39.320312 3.910156 -40.378906 4.765625 -41.203125 C 5.617188 -42.023438 6.722656 -42.4375 8.078125 -42.4375 C 8.984375 -42.4375 9.789062 -42.242188 10.5 -41.859375 C 11.207031 -41.484375 11.753906 -40.960938 12.140625 -40.296875 C 12.535156 -39.640625 12.734375 -38.882812 12.734375 -38.03125 C 12.734375 -37.175781 12.535156 -36.414062 12.140625 -35.75 C 11.753906 -35.082031 11.207031 -34.554688 10.5 -34.171875 C 9.789062 -33.785156 8.984375 -33.59375 8.078125 -33.59375 Z M 4.328125 0 L 4.328125 -30.015625 L 11.859375 -30.015625 L 11.859375 0 Z M 4.328125 0 "/></g></g></g></svg>