<?xml version="1.0" standalone="no"?>
<!DOCTYPE svg PUBLIC "-//W3C//DTD SVG 20010904//EN"
 "http://www.w3.org/TR/2001/REC-SVG-20010904/DTD/svg10.dtd">
<svg version="1.0" xmlns="http://www.w3.org/2000/svg"
 width="500.000000pt" height="500.000000pt" viewBox="0 0 500.000000 500.000000"
 preserveAspectRatio="xMidYMid meet">

<g transform="translate(0.000000,500.000000) scale(0.100000,-0.100000)"
fill="#000000" stroke="none">
<path d="M550 2520 l0 -100 1950 0 1950 0 0 100 0 100 -1950 0 -1950 0 0 -100z
m1918 -5 c12 -25 18 -45 12 -45 -5 0 -12 5 -15 10 -9 14 -62 12 -68 -2 -2 -7
-7 -10 -11 -6 -11 9 32 88 47 88 7 0 23 -20 35 -45z m152 0 c0 -25 -4 -45 -10
-45 -5 0 -10 20 -10 45 0 25 5 45 10 45 6 0 10 -20 10 -45z"/>
<path d="M2421 2521 c-10 -18 -9 -21 9 -21 22 0 25 7 11 29 -7 11 -11 9 -20
-8z"/>
</g>
</svg>
